# xmcd
#
# Track frame offsets: 
#        150
#        22360
#        45632
#        58380
#        79112
#        100292
#        118245
#        139732
#        160505
#        182880
#        208707
#
# Disc length: 2893 seconds
#
# Revision: 3
# Processed by: cddbd v1.5.2PL0 Copyright (c) Steve Scherf et al.
# Submitted via: ExactAudioCopy v0.95b4
#
DISCID=a10b4b0b
DTITLE=Rex Carroll - The Sessions
DYEAR=1995
DGENRE=Christian Rock
TTITLE0=Do It For Love
TTITLE1=Anytime
TTITLE2=If You Know About Love
TTITLE3=Gonna Be There
TTITLE4=Hands Of God
TTITLE5=Invitational Blues
TTITLE6=What You Don't Know Can Hurt You
TTITLE7=Rescue Me
TTITLE8=Awful Good
TTITLE9=I Just Want To Celebrate - Yesu Ke Zola Mono (Jesus Loves Me)
TTITLE10=Cafe Rex
EXTD=
EXTT0=
EXTT1=
EXTT2=
EXTT3=
EXTT4=
EXTT5=
EXTT6=
EXTT7=
EXTT8=
EXTT9=
EXTT10=
PLAYORDER=
